<svg width="33" height="32" viewBox="0 0 33 32" fill="none" xmlns="http://www.w3.org/2000/svg">
<path d="M26.818 11.446C25.0251 8.19643 21.4394 7.52411 18.3019 9.65312C18.1899 9.76518 17.9658 9.87723 17.7417 9.87723C17.7417 8.86875 18.0778 7.52411 19.1984 7.18795C19.7586 7.0759 20.2068 6.40358 19.9827 5.84331C19.8707 5.28304 19.1984 4.83483 18.6381 5.05894C16.285 5.73126 15.5006 7.97232 15.3886 9.87723C15.2765 9.76518 15.1644 9.76518 15.0524 9.65312C11.9149 7.52411 8.32919 8.19643 6.53634 11.446C5.30375 13.687 5.1917 16.8245 6.08813 19.85C7.99303 26.0129 12.9234 28.366 15.7247 27.2455C16.5091 27.0214 16.9573 27.1334 17.6296 27.2455C21.4394 28.254 25.5854 25.0044 27.2662 19.7379C28.1626 16.8245 27.9385 13.575 26.818 11.446ZM25.0251 19.1777C23.9046 22.8754 20.8792 25.9009 18.0778 25.1165C16.9573 24.7803 15.7247 24.8924 14.9403 25.1165C12.4752 25.7888 9.33767 23.0995 8.10509 19.1777C7.32071 16.7125 7.43277 14.2473 8.32919 12.5665C9.44973 10.5495 11.4667 10.1013 13.7078 11.558C15.5006 12.7906 17.7417 12.7906 19.4225 11.558C21.4394 10.2134 23.5684 10.4375 24.689 12.5665C25.6975 14.1353 25.8095 16.7125 25.0251 19.1777Z" fill="#6F6F6F"/>
<path d="M12.0268 13.1268C11.5786 12.7907 10.7942 12.9027 10.4581 13.463C9.8978 14.2474 9.56164 16.2643 10.346 18.5054C10.4581 18.9536 10.9063 19.2898 11.4666 19.2898C12.2509 19.2898 12.8112 18.5054 12.5871 17.8331C11.9148 16.0402 12.2509 14.8076 12.363 14.6956C12.6991 14.1353 12.5871 13.463 12.0268 13.1268Z" fill="#6F6F6F"/>
</svg>
