<svg width="32" height="32" viewBox="0 0 32 32" fill="none" xmlns="http://www.w3.org/2000/svg">
<path d="M22.9795 26C22.9795 26.8283 22.3081 27.4998 21.4798 27.4998C20.6514 27.4998 19.98 26.8283 19.98 26C19.98 25.1717 20.6514 24.5002 21.4798 24.5002C22.3081 24.5002 22.9795 25.1717 22.9795 26Z" fill="#FD4D00"/>
<path d="M22.98 8.58288C22.8738 7.19834 22.2481 5.90524 21.2281 4.96297C20.2081 4.02091 18.8694 3.49949 17.4808 3.50357C15.8835 3.4414 14.3641 4.19455 13.4464 5.50326H12.4816C11.036 5.5031 9.64849 6.07218 8.61935 7.08731C7.59022 8.10245 7.0021 9.48195 6.9824 10.9274C5.57424 11.5484 4.53048 12.7832 4.15291 14.2752C3.7752 15.767 4.10588 17.3498 5.04911 18.5658C5.99234 19.7818 7.44312 20.4955 8.98209 20.5009H12.1216C12.0339 20.8271 11.9868 21.1629 11.9816 21.5007C11.9816 22.9295 12.7439 24.2498 13.9813 24.9642C15.2187 25.6788 16.7433 25.6788 17.9807 24.9642C19.2181 24.2498 19.9804 22.9295 19.9804 21.5007C19.9752 21.1629 19.9282 20.8271 19.8404 20.5009H21.9801C24.0097 20.5088 25.9059 19.4901 27.0193 17.7931C28.1329 16.0961 28.3127 13.9511 27.4976 12.0923C26.6823 10.2334 24.9823 8.91295 22.9795 8.58275L22.98 8.58288ZM15.981 23.5006C15.4507 23.5006 14.9421 23.2899 14.567 22.9149C14.1921 22.5398 13.9813 22.0312 13.9813 21.5009C13.9813 20.9706 14.1921 20.462 14.567 20.0869C14.9421 19.712 15.4507 19.5012 15.981 19.5012C16.5114 19.5012 17.0199 19.712 17.395 20.0869C17.77 20.462 17.9807 20.9706 17.9807 21.5009C17.9807 22.0312 17.77 22.5398 17.395 22.9149C17.0199 23.2898 16.5114 23.5006 15.981 23.5006ZM21.9801 18.5014H18.6006C17.8802 17.8569 16.9475 17.5007 15.981 17.5007C15.0145 17.5007 14.0819 17.8569 13.3615 18.5014H8.98213C8.00507 18.4874 7.09617 17.9985 6.54596 17.191C5.99592 16.3835 5.87352 15.3586 6.21805 14.4444C6.56272 13.53 7.331 12.8408 8.27715 12.5973C8.52435 12.521 8.73575 12.3582 8.8726 12.1387C9.0093 11.9193 9.06252 11.6578 9.02216 11.4025C8.9984 11.2703 8.98505 11.1366 8.98212 11.0025C8.98212 10.0744 9.35088 9.18422 10.007 8.52795C10.6634 7.8718 11.5535 7.50302 12.4816 7.50302H13.9814C14.3347 7.49911 14.6596 7.30904 14.8362 7.00309C15.0867 6.52579 15.4693 6.13052 15.9381 5.8646C16.4071 5.59869 16.9427 5.47322 17.4808 5.50333C18.4089 5.50333 19.2991 5.87209 19.9554 6.52825C20.6115 7.18457 20.9803 8.07473 20.9803 9.00279V9.50272C20.9803 9.76781 21.0856 10.0222 21.2732 10.2097C21.4607 10.3973 21.715 10.5026 21.9801 10.5026C23.409 10.5026 24.7292 11.2648 25.4437 12.5023C26.1582 13.7397 26.1582 15.2642 25.4437 16.5017C24.7293 17.7391 23.409 18.5014 21.9801 18.5014L21.9801 18.5014Z" fill="#FD4D00"/>
<path d="M19.9424 15.314H12.0815C11.6813 15.314 11.3564 14.992 11.3564 14.5953C11.3564 14.1987 11.6813 13.8767 12.0815 13.8767H19.9424C20.3426 13.8767 20.6675 14.1987 20.6675 14.5953C20.6675 14.992 20.3427 15.314 19.9424 15.314Z" fill="#FD4D00"/>
<path d="M18.5059 12.6895H13.5488C13.1491 12.6895 12.8247 12.3675 12.8247 11.9708C12.8247 11.5742 13.1491 11.2522 13.5488 11.2522H18.5059C18.9055 11.2522 19.23 11.5742 19.23 11.9708C19.23 12.3675 18.906 12.6895 18.5059 12.6895Z" fill="#FD4D00"/>
</svg>
