<svg width="32" height="32" viewBox="0 0 32 32" fill="none" xmlns="http://www.w3.org/2000/svg">
<path d="M8.70311 22.6069C9.3141 22.6062 9.91525 22.4529 10.4519 22.1609C10.9886 21.8688 11.4438 21.4473 11.7762 20.9346L17.5044 22.5262C17.5044 22.5519 17.5044 22.5776 17.5044 22.6069C17.5044 23.4773 17.7625 24.3281 18.246 25.0518C18.7296 25.7754 19.4169 26.3395 20.221 26.6726C21.0251 27.0056 21.9099 27.0928 22.7636 26.923C23.6172 26.7532 24.4013 26.3341 25.0168 25.7186C25.6322 25.1032 26.0513 24.3191 26.2211 23.4654C26.3909 22.6118 26.3038 21.727 25.9707 20.9228C25.6376 20.1187 25.0736 19.4314 24.3499 18.9479C23.6262 18.4643 22.7754 18.2063 21.905 18.2063C21.8023 18.2063 21.7033 18.2063 21.6043 18.2063L19.602 12.2251C20.2364 11.7345 20.7101 11.0661 20.9628 10.3051C21.2155 9.54403 21.2356 8.72496 21.0206 7.95244C20.8057 7.17992 20.3653 6.489 19.7558 5.9679C19.1464 5.4468 18.3954 5.11916 17.5989 5.02683C16.8023 4.9345 15.9963 5.08166 15.2838 5.44953C14.5713 5.81739 13.9846 6.38926 13.5986 7.09212C13.2126 7.79498 13.0448 8.59694 13.1167 9.39558C13.1886 10.1942 13.4969 10.9533 14.0022 11.576L10.2653 15.6392C9.76781 15.3983 9.22228 15.273 8.66951 15.2727C8.11674 15.2723 7.57104 15.3969 7.07322 15.6372C6.5754 15.8775 6.13834 16.2272 5.79471 16.6601C5.45108 17.0931 5.20977 17.5982 5.08884 18.1376C4.96791 18.6769 4.97047 19.2367 5.09634 19.7749C5.22221 20.3132 5.46813 20.816 5.81571 21.2458C6.1633 21.6756 6.60355 22.0213 7.10355 22.257C7.60355 22.4927 8.15036 22.6123 8.70311 22.6069ZM24.1053 22.6069C24.1053 23.0421 23.9763 23.4675 23.7345 23.8293C23.4928 24.1912 23.1491 24.4732 22.7471 24.6397C22.345 24.8063 21.9026 24.8498 21.4758 24.7649C21.0489 24.68 20.6569 24.4705 20.3492 24.1628C20.0414 23.855 19.8319 23.463 19.747 23.0362C19.6621 22.6093 19.7057 22.1669 19.8722 21.7649C20.0387 21.3628 20.3208 21.0192 20.6826 20.7774C21.0444 20.5356 21.4698 20.4066 21.905 20.4066C22.4886 20.4066 23.0482 20.6384 23.4609 21.051C23.8735 21.4637 24.1053 22.0233 24.1053 22.6069ZM19.514 18.9177C18.932 19.2962 18.4471 19.8062 18.0985 20.4066L12.3703 18.815C12.3515 18.2138 12.1839 17.6267 11.8826 17.1061L15.8248 12.8485C16.2469 12.9957 16.6906 13.0713 17.1377 13.0722C17.2785 13.0722 17.4193 13.0648 17.5594 13.0502L19.514 18.9177ZM17.1377 7.20465C17.5003 7.20465 17.8548 7.31219 18.1564 7.51367C18.4579 7.71515 18.6929 8.00152 18.8317 8.33657C18.9705 8.67161 19.0068 9.04029 18.936 9.39597C18.8653 9.75166 18.6907 10.0784 18.4342 10.3348C18.1778 10.5912 17.8511 10.7659 17.4954 10.8366C17.1397 10.9074 16.771 10.8711 16.436 10.7323C16.1009 10.5935 15.8146 10.3585 15.6131 10.0569C15.4116 9.75541 15.3041 9.40091 15.3041 9.03825C15.3041 8.55195 15.4972 8.08557 15.8411 7.7417C16.185 7.39784 16.6514 7.20465 17.1377 7.20465ZM8.70311 17.4728C8.99323 17.4728 9.27683 17.5588 9.51806 17.72C9.75929 17.8812 9.9473 18.1103 10.0583 18.3783C10.1694 18.6464 10.1984 18.9413 10.1418 19.2259C10.0852 19.5104 9.94549 19.7718 9.74035 19.9769C9.5352 20.1821 9.27383 20.3218 8.98928 20.3784C8.70473 20.435 8.40979 20.4059 8.14176 20.2949C7.87372 20.1839 7.64462 19.9959 7.48344 19.7546C7.32226 19.5134 7.23623 19.2298 7.23623 18.9397C7.23623 18.5507 7.39077 18.1775 7.66587 17.9025C7.94096 17.6274 8.31407 17.4728 8.70311 17.4728Z" fill="#6F6F6F"/>
</svg>
