<svg width="11" height="11" viewBox="0 0 11 11" fill="none" xmlns="http://www.w3.org/2000/svg">
<path d="M7.38733 5.04208V3.68367C7.38733 2.72831 6.5426 1.95386 5.50008 1.95386C4.45777 1.95386 3.61284 2.72907 3.61284 3.68367V5.04208H3.22997C2.8729 5.04208 2.58343 5.34988 2.58343 5.72781V9.16027C2.58343 9.53901 2.87271 9.846 3.22997 9.846H7.77021C8.12728 9.846 8.41675 9.5382 8.41675 9.16027V5.72781C8.41675 5.34907 8.12747 5.04208 7.77021 5.04208H7.38733ZM7.58341 5.89991V9.02491H3.41675V5.89991H7.58341ZM4.45841 5.04208V3.68367C4.45841 3.12176 4.82443 2.77491 5.50008 2.77491C6.1762 2.77491 6.54175 3.12124 6.54175 3.68367V5.04208H4.45841ZM5.84322 7.02691C5.84322 6.83744 5.69093 6.68383 5.50008 6.68383C5.31058 6.68383 5.15695 6.8361 5.15695 7.02691V8.05646C5.15695 8.24593 5.30924 8.39954 5.50008 8.39954C5.68958 8.39954 5.84322 8.24727 5.84322 8.05646V7.02691Z" fill="#6F6F6F"/>
</svg>
